# xmcd
#
# Track frame offsets:
#	150
#	12438
#	24497
#	37749
#	49394
#	64019
#	77908
#	91757
#	104546
#	114161
#	123929
#	135165
#	149902
#	160134
#	171777
#	186960
#	198541
#
# Disc length: 2833 seconds
#
# Revision: 1
# Processed by: cddbd v1.5.2PL0 Copyright (c) Steve Scherf et al.
# Submitted via: audiograbber 1.83.01
#
DISCID=e20b0f11
DTITLE=Various Artist - This Is Country - Queens Of Country
DYEAR=2008
DGENRE=Country
TTITLE0=Tammy Wynette - Stand By Your Man
TTITLE1=Dolly Parton - Jolene
TTITLE2=Lynn Anderson - Rose Garden
TTITLE3=Patsy Cline - Walkin After Midnight
TTITLE4=Loretta Lynn - Coal Miners Daughter
TTITLE5=Barbara Mandrell - If Loving You Is Wrong I Don't Want To Be Right
TTITLE6=Patti Page - Tennessee Waltz
TTITLE7=Jean Shepard - Beautiful Lies
TTITLE8=Skeeter Davis - Turn Your Radio On
TTITLE9=Brenda Lee - Jambalaya
TTITLE10=Ann Murray - The Last Thing On My Mind
TTITLE11=Jeannie C Riley - Harper Valley PTA
TTITLE12=Billie Jo Spears - I Stayed Long Enough
TTITLE13=Barbara Fairchild - Cheating Is
TTITLE14=Rita Remington - I'm Not Lisa
TTITLE15=Kitty Wells - Honky Tonk Waltz
TTITLE16=Patsy Montana and The Prairie Cowboys - I Want To Be A Cowboy's Sweethea
TTITLE16=rt
EXTD=
EXTT0=
EXTT1=
EXTT2=
EXTT3=
EXTT4=
EXTT5=
EXTT6=
EXTT7=
EXTT8=
EXTT9=
EXTT10=
EXTT11=
EXTT12=
EXTT13=
EXTT14=
EXTT15=
EXTT16=
PLAYORDER=
